<svg width="45" height="45" viewBox="0 0 45 45" fill="none" xmlns="http://www.w3.org/2000/svg">
<path fill-rule="evenodd" clip-rule="evenodd" d="M9 39H36V36H9V39ZM12 36V32H33V36H12ZM11 14V9H15V11H20V9H25V11H30V9H34V14" fill="white"/>
<path d="M11 14V9H15V11H20V9H25V11H30V9H34V14M9 39H36V36H9V39ZM12 36V32H33V36H12Z" stroke="black" stroke-width="1.5" stroke-linejoin="round"/>
<path fill-rule="evenodd" clip-rule="evenodd" d="M34 14L31 17H14L11 14" fill="white"/>
<path d="M34 14L31 17H14L11 14" stroke="black" stroke-width="1.5" stroke-linecap="round" stroke-linejoin="round"/>
<path fill-rule="evenodd" clip-rule="evenodd" d="M31 17V29.5H14V17" fill="white"/>
<path d="M31 17V29.5H14V17" stroke="black" stroke-width="1.5"/>
<path fill-rule="evenodd" clip-rule="evenodd" d="M31 29.5L32.5 32H12.5L14 29.5" fill="white"/>
<path d="M31 29.5L32.5 32H12.5L14 29.5" stroke="black" stroke-width="1.5" stroke-linecap="round" stroke-linejoin="round"/>
<path fill-rule="evenodd" clip-rule="evenodd" d="M11 14H34H11Z" fill="white"/>
<path d="M11 14H34" stroke="black" stroke-width="1.5" stroke-linecap="round"/>
<path d="M28.3092 20.3285C28.3092 19.1022 27.8318 18.2263 26.8769 17.7182C26.0104 17.2453 24.9671 17 23.7647 17H18.6543C18.2122 17 18 17.1226 18 17.3854C18 17.6307 18.1768 17.7533 18.5482 17.7533C19.397 17.7533 19.45 17.8234 19.45 18.6642V27.3358C19.45 28.1591 19.397 28.2467 18.5835 28.2467C18.1945 28.2467 18 28.3693 18 28.6146C18 28.9299 18.2476 29 18.6543 29H23.3403C23.7647 29 23.9769 28.8774 23.9769 28.6146C23.9769 28.3693 23.8 28.2467 23.4287 28.2467C22.5092 28.2467 22.4384 28.2117 22.4384 27.3358V23.6745C22.6683 23.6745 22.7921 23.6745 22.8098 23.692H23.4287C26.0281 23.692 28.3092 22.6934 28.3092 20.3285ZM25.4622 17.946C26.8592 18.3139 27.5665 19.1022 27.5665 20.3285C27.5665 21.5022 26.8415 22.308 25.4092 22.7109C25.7452 22.1679 25.922 21.362 25.922 20.3109C25.922 19.2599 25.7629 18.4715 25.4622 17.946ZM25.1616 20.3109C25.1616 21.4847 24.9671 22.2204 24.5781 22.5358C24.2598 22.7985 23.8177 22.9212 23.2342 22.9212H22.4384V18.6117C22.4384 17.9635 22.6506 17.7533 23.411 17.7533C24.9494 17.7533 25.1616 18.6467 25.1616 20.3109ZM20.0866 17.7533H21.8372C21.7311 17.946 21.6781 18.2088 21.6781 18.5591V27.3708C21.6781 27.7387 21.7134 28.0365 21.7842 28.2467H20.0866C20.1573 28.0365 20.1927 27.7387 20.1927 27.3708V18.6292C20.1927 18.2613 20.1573 17.9635 20.0866 17.7533Z" fill="black"/>
</svg>
