<svg width="512" height="512" viewBox="0 0 512 512" fill="none" xmlns="http://www.w3.org/2000/svg">
<path d="M426.989 165.372C426.989 124.002 411.213 94.4515 379.661 77.3124C351.031 61.3553 316.558 53.0812 276.827 53.0812H107.967C93.3601 53.0812 86.3486 57.2182 86.3486 66.0833C86.3486 74.3574 92.1915 78.4944 104.462 78.4944C132.507 78.4944 134.26 80.8584 134.26 109.227V401.773C134.26 429.551 132.507 432.506 105.63 432.506C92.7758 432.506 86.3486 436.643 86.3486 444.917C86.3486 455.555 94.5286 457.919 107.967 457.919H262.804C276.827 457.919 283.838 453.782 283.838 444.917C283.838 436.643 277.995 432.506 265.725 432.506C235.342 432.506 233.005 431.324 233.005 401.773V278.254C240.601 278.254 244.691 278.254 245.275 278.845H265.725C351.615 278.845 426.989 245.157 426.989 165.372ZM332.918 84.9954C379.077 97.4065 402.448 124.002 402.448 165.372C402.448 204.969 378.493 232.155 331.165 245.748C342.267 227.427 348.11 200.241 348.11 164.781C348.11 129.321 342.851 102.726 332.918 84.9954ZM322.985 164.781C322.985 204.378 316.558 229.2 303.704 239.838C293.187 248.703 278.579 252.84 259.298 252.84H233.005V107.454C233.005 85.5864 240.016 78.4944 265.141 78.4944C315.974 78.4944 322.985 108.636 322.985 164.781ZM155.295 78.4944H213.139C209.633 84.9954 207.881 93.8605 207.881 105.681V402.955C207.881 415.366 209.049 425.414 211.386 432.506H155.295C157.632 425.414 158.8 415.366 158.8 402.955V108.045C158.8 95.6335 157.632 85.5864 155.295 78.4944Z" fill="white"/>
</svg>
